<svg xmlns="http://www.w3.org/2000/svg" width="720" height="260" viewBox="0 0 720 260">
<rect width="100%" height="100%" fill="white"/>
<style>text{font-family:Helvetica,Arial,sans-serif;fill:#222222}.label{font-size:11px}.small{font-size:9.5px;fill:#666666}.axis{font-size:9px;fill:#666666}.panel{font-size:12px;font-weight:700}</style>
<line x1="48" y1="194" x2="668" y2="194" stroke="#222222" stroke-width="0.8" fill="none"/>
<line x1="48" y1="34" x2="48" y2="194" stroke="#222222" stroke-width="0.8" fill="none"/>
<line x1="48" y1="194.0" x2="668" y2="194.0" stroke="#d6d6d6" stroke-width="0.5" fill="none"/>
<text x="43" y="197.0" class="axis" text-anchor="end">0</text>
<line x1="48" y1="140.66666666666666" x2="668" y2="140.66666666666666" stroke="#d6d6d6" stroke-width="0.5" fill="none"/>
<text x="43" y="143.66666666666666" class="axis" text-anchor="end">5</text>
<line x1="48" y1="87.33333333333333" x2="668" y2="87.33333333333333" stroke="#d6d6d6" stroke-width="0.5" fill="none"/>
<text x="43" y="90.33333333333333" class="axis" text-anchor="end">10</text>
<line x1="48" y1="34.0" x2="668" y2="34.0" stroke="#d6d6d6" stroke-width="0.5" fill="none"/>
<text x="43" y="37.0" class="axis" text-anchor="end">15</text>
<rect x="57.0" y="55.33333333333334" width="7" height="138.66666666666666" fill="#4c78a8" rx="0"/>
<rect x="67.0" y="87.33333333333333" width="7" height="106.66666666666667" fill="#9d9d9d" rx="0"/>
<rect x="77.0" y="76.66666666666667" width="7" height="117.33333333333333" fill="#f58518" rx="0"/>
<rect x="87.0" y="55.33333333333334" width="7" height="138.66666666666666" fill="#54a24b" rx="0"/>
<rect x="97.0" y="55.33333333333334" width="7" height="138.66666666666666" fill="#7f6dba" rx="0"/>
<text x="79.0" y="209" class="axis" text-anchor="middle">0</text>
<rect x="119.0" y="76.66666666666667" width="7" height="117.33333333333333" fill="#4c78a8" rx="0"/>
<rect x="129.0" y="55.33333333333334" width="7" height="138.66666666666666" fill="#9d9d9d" rx="0"/>
<rect x="139.0" y="55.33333333333334" width="7" height="138.66666666666666" fill="#f58518" rx="0"/>
<rect x="149.0" y="44.66666666666666" width="7" height="149.33333333333334" fill="#54a24b" rx="0"/>
<rect x="159.0" y="44.66666666666666" width="7" height="149.33333333333334" fill="#7f6dba" rx="0"/>
<text x="141.0" y="209" class="axis" text-anchor="middle">1</text>
<rect x="181.0" y="66.0" width="7" height="128.0" fill="#4c78a8" rx="0"/>
<rect x="191.0" y="55.33333333333334" width="7" height="138.66666666666666" fill="#9d9d9d" rx="0"/>
<rect x="201.0" y="44.66666666666666" width="7" height="149.33333333333334" fill="#f58518" rx="0"/>
<rect x="211.0" y="34.0" width="7" height="160.0" fill="#54a24b" rx="0"/>
<rect x="221.0" y="55.33333333333334" width="7" height="138.66666666666666" fill="#7f6dba" rx="0"/>
<text x="203.0" y="209" class="axis" text-anchor="middle">2</text>
<rect x="243.0" y="34.0" width="7" height="160.0" fill="#4c78a8" rx="0"/>
<rect x="253.0" y="34.0" width="7" height="160.0" fill="#9d9d9d" rx="0"/>
<rect x="263.0" y="55.33333333333334" width="7" height="138.66666666666666" fill="#f58518" rx="0"/>
<rect x="273.0" y="55.33333333333334" width="7" height="138.66666666666666" fill="#54a24b" rx="0"/>
<rect x="283.0" y="34.0" width="7" height="160.0" fill="#7f6dba" rx="0"/>
<text x="265.0" y="209" class="axis" text-anchor="middle">3</text>
<rect x="298.0" y="30" width="58.0" height="168" fill="none" rx="0" stroke="#b35c00" stroke-width="0.8"/>
<rect x="305.0" y="108.66666666666667" width="7" height="85.33333333333333" fill="#4c78a8" rx="0"/>
<rect x="315.0" y="108.66666666666667" width="7" height="85.33333333333333" fill="#9d9d9d" rx="0"/>
<rect x="325.0" y="55.33333333333334" width="7" height="138.66666666666666" fill="#f58518" rx="0"/>
<rect x="335.0" y="66.0" width="7" height="128.0" fill="#54a24b" rx="0"/>
<rect x="345.0" y="66.0" width="7" height="128.0" fill="#7f6dba" rx="0"/>
<text x="327.0" y="209" class="axis" text-anchor="middle">4</text>
<rect x="367.0" y="34.0" width="7" height="160.0" fill="#4c78a8" rx="0"/>
<rect x="377.0" y="44.66666666666666" width="7" height="149.33333333333334" fill="#9d9d9d" rx="0"/>
<rect x="387.0" y="44.66666666666666" width="7" height="149.33333333333334" fill="#f58518" rx="0"/>
<rect x="397.0" y="34.0" width="7" height="160.0" fill="#54a24b" rx="0"/>
<rect x="407.0" y="34.0" width="7" height="160.0" fill="#7f6dba" rx="0"/>
<text x="389.0" y="209" class="axis" text-anchor="middle">5</text>
<rect x="429.0" y="130.0" width="7" height="64.0" fill="#4c78a8" rx="0"/>
<rect x="439.0" y="98.0" width="7" height="96.0" fill="#9d9d9d" rx="0"/>
<rect x="449.0" y="87.33333333333333" width="7" height="106.66666666666667" fill="#f58518" rx="0"/>
<rect x="459.0" y="108.66666666666667" width="7" height="85.33333333333333" fill="#54a24b" rx="0"/>
<rect x="469.0" y="119.33333333333333" width="7" height="74.66666666666667" fill="#7f6dba" rx="0"/>
<text x="451.0" y="209" class="axis" text-anchor="middle">6</text>
<rect x="491.0" y="76.66666666666667" width="7" height="117.33333333333333" fill="#4c78a8" rx="0"/>
<rect x="501.0" y="108.66666666666667" width="7" height="85.33333333333333" fill="#9d9d9d" rx="0"/>
<rect x="511.0" y="108.66666666666667" width="7" height="85.33333333333333" fill="#f58518" rx="0"/>
<rect x="521.0" y="108.66666666666667" width="7" height="85.33333333333333" fill="#54a24b" rx="0"/>
<rect x="531.0" y="87.33333333333333" width="7" height="106.66666666666667" fill="#7f6dba" rx="0"/>
<text x="513.0" y="209" class="axis" text-anchor="middle">7</text>
<rect x="546.0" y="30" width="58.0" height="168" fill="none" rx="0" stroke="#b35c00" stroke-width="0.8"/>
<rect x="553.0" y="162.0" width="7" height="32.0" fill="#4c78a8" rx="0"/>
<rect x="563.0" y="98.0" width="7" height="96.0" fill="#9d9d9d" rx="0"/>
<rect x="573.0" y="151.33333333333334" width="7" height="42.666666666666664" fill="#f58518" rx="0"/>
<rect x="583.0" y="130.0" width="7" height="64.0" fill="#54a24b" rx="0"/>
<rect x="593.0" y="162.0" width="7" height="32.0" fill="#7f6dba" rx="0"/>
<text x="575.0" y="209" class="axis" text-anchor="middle">8</text>
<rect x="615.0" y="44.66666666666666" width="7" height="149.33333333333334" fill="#4c78a8" rx="0"/>
<rect x="625.0" y="44.66666666666666" width="7" height="149.33333333333334" fill="#9d9d9d" rx="0"/>
<rect x="635.0" y="44.66666666666666" width="7" height="149.33333333333334" fill="#f58518" rx="0"/>
<rect x="645.0" y="66.0" width="7" height="128.0" fill="#54a24b" rx="0"/>
<rect x="655.0" y="66.0" width="7" height="128.0" fill="#7f6dba" rx="0"/>
<text x="637.0" y="209" class="axis" text-anchor="middle">9</text>
<text x="358.0" y="224" class="small" text-anchor="middle">task id</text>
<rect x="145" y="233" width="11" height="11" fill="#4c78a8" rx="0"/>
<text x="161" y="242" class="small" text-anchor="start">FP16</text>
<rect x="233" y="233" width="11" height="11" fill="#9d9d9d" rx="0"/>
<text x="249" y="242" class="small" text-anchor="start">none</text>
<rect x="321" y="233" width="11" height="11" fill="#f58518" rx="0"/>
<text x="337" y="242" class="small" text-anchor="start">ATM</text>
<rect x="409" y="233" width="11" height="11" fill="#54a24b" rx="0"/>
<text x="425" y="242" class="small" text-anchor="start">OHB</text>
<rect x="497" y="233" width="11" height="11" fill="#7f6dba" rx="0"/>
<text x="513" y="242" class="small" text-anchor="start">A+O</text>
</svg>