<svg xmlns="http://www.w3.org/2000/svg" width="760" height="300" viewBox="0 0 760 300">
<rect width="100%" height="100%" fill="white"/>
<style>text{font-family:Helvetica,Arial,sans-serif;fill:#222222}.label{font-size:11px}.small{font-size:9.5px;fill:#666666}.axis{font-size:9px;fill:#666666}.panel{font-size:12px;font-weight:700}</style>
<text x="58" y="36" class="panel" text-anchor="start">(a) N1.5 multi-fold validation</text>
<text x="58" y="49" class="small" text-anchor="start">mean speedup vs total regressions</text>
<line x1="58" y1="224" x2="338" y2="224" stroke="#222222" stroke-width="0.9" fill="none"/>
<line x1="58" y1="54" x2="58" y2="224" stroke="#222222" stroke-width="0.9" fill="none"/>
<line x1="58.0" y1="54" x2="58.0" y2="224" stroke="#d6d6d6" stroke-width="0.5" fill="none"/>
<text x="58.0" y="240" class="axis" text-anchor="middle">1.00x</text>
<line x1="118.86956521739131" y1="54" x2="118.86956521739131" y2="224" stroke="#d6d6d6" stroke-width="0.5" fill="none"/>
<text x="118.86956521739131" y="240" class="axis" text-anchor="middle">1.25x</text>
<line x1="179.73913043478262" y1="54" x2="179.73913043478262" y2="224" stroke="#d6d6d6" stroke-width="0.5" fill="none"/>
<text x="179.73913043478262" y="240" class="axis" text-anchor="middle">1.50x</text>
<line x1="240.60869565217394" y1="54" x2="240.60869565217394" y2="224" stroke="#d6d6d6" stroke-width="0.5" fill="none"/>
<text x="240.60869565217394" y="240" class="axis" text-anchor="middle">1.75x</text>
<line x1="301.47826086956525" y1="54" x2="301.47826086956525" y2="224" stroke="#d6d6d6" stroke-width="0.5" fill="none"/>
<text x="301.47826086956525" y="240" class="axis" text-anchor="middle">2.00x</text>
<line x1="58" y1="224.0" x2="338" y2="224.0" stroke="#d6d6d6" stroke-width="0.5" fill="none"/>
<text x="50" y="227.0" class="axis" text-anchor="end">0</text>
<line x1="58" y1="181.5" x2="338" y2="181.5" stroke="#d6d6d6" stroke-width="0.5" fill="none"/>
<text x="50" y="184.5" class="axis" text-anchor="end">2</text>
<line x1="58" y1="139.0" x2="338" y2="139.0" stroke="#d6d6d6" stroke-width="0.5" fill="none"/>
<text x="50" y="142.0" class="axis" text-anchor="end">4</text>
<line x1="58" y1="96.5" x2="338" y2="96.5" stroke="#d6d6d6" stroke-width="0.5" fill="none"/>
<text x="50" y="99.5" class="axis" text-anchor="end">6</text>
<line x1="58" y1="54.0" x2="338" y2="54.0" stroke="#d6d6d6" stroke-width="0.5" fill="none"/>
<text x="50" y="57.0" class="axis" text-anchor="end">8</text>
<path d="M157.8,202.8 L263.7,160.2 L303.9,75.2" stroke="#666666" stroke-width="1.1" fill="none" stroke-dasharray="4 3"/>
<circle cx="157.82608695652178" cy="202.75" r="7.5" fill="#4c78a8" stroke="white" stroke-width="1.5"/>
<text x="167.82608695652178" y="186.75" class="label" text-anchor="start" style="fill:#4c78a8" font-weight="700">blocks0-3 + 0-120</text>
<text x="167.82608695652178" y="199.75" class="small" text-anchor="start">worst 1.07x</text>
<circle cx="263.7391304347826" cy="160.25" r="7.5" fill="#54a24b" stroke="white" stroke-width="1.5"/>
<text x="273.7391304347826" y="186.25" class="label" text-anchor="start" style="fill:#54a24b" font-weight="700">0-120</text>
<text x="273.7391304347826" y="199.25" class="small" text-anchor="start">worst 1.71x</text>
<circle cx="303.9130434782609" cy="75.25" r="7.5" fill="#e45756" stroke="white" stroke-width="1.5"/>
<text x="313.9130434782609" y="57.25" class="label" text-anchor="start" style="fill:#e45756" font-weight="700">speed-only</text>
<text x="313.9130434782609" y="70.25" class="small" text-anchor="start">worst 1.75x</text>
<text x="430" y="36" class="panel" text-anchor="start">(b) N1.7 held-out routing</text>
<text x="430" y="49" class="small" text-anchor="start">p50 speedup vs paired regressions</text>
<line x1="430" y1="224" x2="680" y2="224" stroke="#222222" stroke-width="0.9" fill="none"/>
<line x1="430" y1="54" x2="430" y2="224" stroke="#222222" stroke-width="0.9" fill="none"/>
<line x1="430.0" y1="54" x2="430.0" y2="224" stroke="#d6d6d6" stroke-width="0.5" fill="none"/>
<text x="430.0" y="240" class="axis" text-anchor="middle">1.00x</text>
<line x1="520.9090909090909" y1="54" x2="520.9090909090909" y2="224" stroke="#d6d6d6" stroke-width="0.5" fill="none"/>
<text x="520.9090909090909" y="240" class="axis" text-anchor="middle">1.20x</text>
<line x1="611.8181818181818" y1="54" x2="611.8181818181818" y2="224" stroke="#d6d6d6" stroke-width="0.5" fill="none"/>
<text x="611.8181818181818" y="240" class="axis" text-anchor="middle">1.40x</text>
<line x1="430" y1="224.0" x2="680" y2="224.0" stroke="#d6d6d6" stroke-width="0.5" fill="none"/>
<text x="422" y="227.0" class="axis" text-anchor="end">0</text>
<line x1="430" y1="181.5" x2="680" y2="181.5" stroke="#d6d6d6" stroke-width="0.5" fill="none"/>
<text x="422" y="184.5" class="axis" text-anchor="end">1</text>
<line x1="430" y1="139.0" x2="680" y2="139.0" stroke="#d6d6d6" stroke-width="0.5" fill="none"/>
<text x="422" y="142.0" class="axis" text-anchor="end">2</text>
<line x1="430" y1="96.5" x2="680" y2="96.5" stroke="#d6d6d6" stroke-width="0.5" fill="none"/>
<text x="422" y="99.5" class="axis" text-anchor="end">3</text>
<line x1="430" y1="54.0" x2="680" y2="54.0" stroke="#d6d6d6" stroke-width="0.5" fill="none"/>
<text x="422" y="57.0" class="axis" text-anchor="end">4</text>
<path d="M470.9,181.5 L530.0,181.5 L611.8,139.0 L648.2,96.5" stroke="#666666" stroke-width="1.1" fill="none" stroke-dasharray="4 3"/>
<circle cx="470.90909090909093" cy="181.5" r="7.5" fill="#4c78a8" stroke="white" stroke-width="1.5"/>
<text x="480.90909090909093" y="153.5" class="label" text-anchor="start" style="fill:#4c78a8" font-weight="700">0-20</text>
<text x="480.90909090909093" y="166.5" class="small" text-anchor="start">succ 0.933</text>
<circle cx="530.0" cy="181.5" r="7.5" fill="#54a24b" stroke="white" stroke-width="1.5"/>
<text x="552.0" y="205.5" class="label" text-anchor="start" style="fill:#54a24b" font-weight="700">5-15</text>
<text x="552.0" y="218.5" class="small" text-anchor="start">succ 0.867</text>
<circle cx="611.8181818181818" cy="139.0" r="7.5" fill="#7f6dba" stroke="white" stroke-width="1.5"/>
<text x="621.8181818181818" y="111.0" class="label" text-anchor="start" style="fill:#7f6dba" font-weight="700">routed</text>
<text x="621.8181818181818" y="124.0" class="small" text-anchor="start">succ 0.867</text>
<circle cx="648.1818181818181" cy="96.5" r="7.5" fill="#e45756" stroke="white" stroke-width="1.5"/>
<text x="566.1818181818181" y="78.5" class="label" text-anchor="start" style="fill:#e45756" font-weight="700">speed-only</text>
<text x="566.1818181818181" y="91.5" class="small" text-anchor="start">succ 0.733</text>
<text x="210" y="270" class="small" text-anchor="middle">server-p50 speedup</text>
<text x="550" y="270" class="small" text-anchor="middle">server-p50 speedup</text>
</svg>