<svg xmlns="http://www.w3.org/2000/svg" width="560" height="270" viewBox="0 0 560 270">
<rect width="100%" height="100%" fill="white"/>
<style>text{font-family:Helvetica,Arial,sans-serif;fill:#222222}.label{font-size:11px}.small{font-size:9.5px;fill:#666666}.axis{font-size:9px;fill:#666666}.panel{font-size:12px;font-weight:700}</style>
<line x1="56" y1="208" x2="446" y2="208" stroke="#222222" stroke-width="0.9" fill="none"/>
<line x1="56" y1="38" x2="56" y2="208" stroke="#222222" stroke-width="0.9" fill="none"/>
<line x1="56.0" y1="38" x2="56.0" y2="208" stroke="#d6d6d6" stroke-width="0.5" fill="none"/>
<text x="56.0" y="224" class="axis" text-anchor="middle">1.00x</text>
<line x1="140.7826086956522" y1="38" x2="140.7826086956522" y2="208" stroke="#d6d6d6" stroke-width="0.5" fill="none"/>
<text x="140.7826086956522" y="224" class="axis" text-anchor="middle">1.25x</text>
<line x1="225.56521739130437" y1="38" x2="225.56521739130437" y2="208" stroke="#d6d6d6" stroke-width="0.5" fill="none"/>
<text x="225.56521739130437" y="224" class="axis" text-anchor="middle">1.50x</text>
<line x1="310.3478260869565" y1="38" x2="310.3478260869565" y2="208" stroke="#d6d6d6" stroke-width="0.5" fill="none"/>
<text x="310.3478260869565" y="224" class="axis" text-anchor="middle">1.75x</text>
<line x1="395.13043478260875" y1="38" x2="395.13043478260875" y2="208" stroke="#d6d6d6" stroke-width="0.5" fill="none"/>
<text x="395.13043478260875" y="224" class="axis" text-anchor="middle">2.00x</text>
<line x1="56" y1="208.0" x2="446" y2="208.0" stroke="#d6d6d6" stroke-width="0.5" fill="none"/>
<text x="48" y="211.0" class="axis" text-anchor="end">0</text>
<line x1="56" y1="165.5" x2="446" y2="165.5" stroke="#d6d6d6" stroke-width="0.5" fill="none"/>
<text x="48" y="168.5" class="axis" text-anchor="end">2</text>
<line x1="56" y1="123.0" x2="446" y2="123.0" stroke="#d6d6d6" stroke-width="0.5" fill="none"/>
<text x="48" y="126.0" class="axis" text-anchor="end">4</text>
<line x1="56" y1="80.5" x2="446" y2="80.5" stroke="#d6d6d6" stroke-width="0.5" fill="none"/>
<text x="48" y="83.5" class="axis" text-anchor="end">6</text>
<line x1="56" y1="38.0" x2="446" y2="38.0" stroke="#d6d6d6" stroke-width="0.5" fill="none"/>
<text x="48" y="41.0" class="axis" text-anchor="end">8</text>
<path d="M195.0,186.8 L342.6,144.2 L398.5,59.2" stroke="#666666" stroke-width="1.1" fill="none" stroke-dasharray="4 3"/>
<circle cx="195.04347826086962" cy="186.75" r="8" fill="#4c78a8" stroke="white" stroke-width="1.5"/>
<text x="206.04347826086962" y="180.75" class="label" text-anchor="start" style="fill:#4c78a8" font-weight="700">blocks0-3 + 0-120</text>
<text x="206.04347826086962" y="194.75" class="small" text-anchor="start">worst 1.07x, 0.733</text>
<circle cx="342.5652173913044" cy="144.25" r="8" fill="#54a24b" stroke="white" stroke-width="1.5"/>
<text x="353.5652173913044" y="138.25" class="label" text-anchor="start" style="fill:#54a24b" font-weight="700">0-120</text>
<text x="353.5652173913044" y="152.25" class="small" text-anchor="start">worst 1.71x, 0.733</text>
<circle cx="398.52173913043475" cy="59.25" r="8" fill="#e45756" stroke="white" stroke-width="1.5"/>
<text x="409.52173913043475" y="53.25" class="label" text-anchor="start" style="fill:#e45756" font-weight="700">speed-only</text>
<text x="409.52173913043475" y="67.25" class="small" text-anchor="start">worst 1.75x, 0.667</text>
<text x="251.0" y="248" class="small" text-anchor="middle">mean server-p50 speedup across validation folds</text>
<text x="56" y="24" class="small" text-anchor="start">paired regressions vs FP16</text>
<text x="190" y="24" class="small" text-anchor="start" style="fill:#666666">slower / safer</text>
<text x="360" y="22" class="small" text-anchor="start" style="fill:#666666">faster / riskier</text>
<text x="462" y="116" class="small" text-anchor="start">selection</text>
<text x="462" y="132" class="small" text-anchor="start">depends on</text>
<text x="462" y="148" class="small" text-anchor="start">constraints</text>
</svg>